<svg width="187" height="79" viewBox="0 0 427 109" fill="none" xmlns="http://www.w3.org/2000/svg">
<g clip-path="url(#clip0_1137_176)">
<circle cx="54.5" cy="54.7986" r="39.5685" stroke="#EF0B0F" stroke-width="29.863"/>
<path d="M60.6484 47.0859C60.6484 47.9766 60.4922 48.7812 60.1797 49.5C59.8672 50.2031 59.4688 50.875 58.9844 51.5156C58.5156 52.1562 58 52.7812 57.4375 53.3906C56.875 54 56.3438 54.6484 55.8438 55.3359C55.3594 56.0234 54.9453 56.7734 54.6016 57.5859C54.2578 58.3984 54.0625 59.3281 54.0156 60.375H53.2891C53.3359 58.9531 53.5703 57.6094 53.9922 56.3438C54.4141 55.0625 54.9844 53.8125 55.7031 52.5938C56.1719 51.7969 56.5547 50.9609 56.8516 50.0859C57.1641 49.2109 57.3203 48.2891 57.3203 47.3203C57.3203 46.6953 57.2344 46.0938 57.0625 45.5156C56.9062 44.9375 56.6562 44.4219 56.3125 43.9688C55.9844 43.5156 55.5625 43.1562 55.0469 42.8906C54.5469 42.6094 53.9453 42.4688 53.2422 42.4688C52.9141 42.4688 52.5547 42.5156 52.1641 42.6094C51.7734 42.6875 51.4062 42.8203 51.0625 43.0078C50.7344 43.1953 50.4531 43.4375 50.2188 43.7344C50 44.0312 49.8906 44.3828 49.8906 44.7891C49.8906 45.0234 49.9453 45.2812 50.0547 45.5625C50.1797 45.8438 50.3047 46.125 50.4297 46.4062C50.5703 46.6719 50.6953 46.9375 50.8047 47.2031C50.9297 47.4531 50.9922 47.6719 50.9922 47.8594C50.9922 48.25 50.8594 48.5938 50.5938 48.8906C50.3438 49.1875 50.0156 49.3359 49.6094 49.3359C49.2656 49.3359 48.9688 49.25 48.7188 49.0781C48.4688 48.8906 48.2578 48.6641 48.0859 48.3984C47.9297 48.1172 47.8125 47.8125 47.7344 47.4844C47.6719 47.1562 47.6406 46.8516 47.6406 46.5703C47.6406 45.6953 47.8281 44.9375 48.2031 44.2969C48.5781 43.6562 49.0625 43.1328 49.6562 42.7266C50.2656 42.3203 50.9453 42.0234 51.6953 41.8359C52.4609 41.6328 53.2344 41.5312 54.0156 41.5312C54.875 41.5312 55.7031 41.6406 56.5 41.8594C57.2969 42.0781 58 42.4141 58.6094 42.8672C59.2344 43.3203 59.7266 43.8984 60.0859 44.6016C60.4609 45.2891 60.6484 46.1172 60.6484 47.0859ZM55.75 64.5234C55.75 65.0703 55.5547 65.5312 55.1641 65.9062C54.7891 66.2812 54.3281 66.4688 53.7812 66.4688C53.2344 66.4688 52.7578 66.2891 52.3516 65.9297C51.9609 65.5703 51.7656 65.1016 51.7656 64.5234C51.7656 64.2422 51.8203 63.9766 51.9297 63.7266C52.0391 63.4766 52.1875 63.2656 52.375 63.0938C52.5625 62.9062 52.7734 62.7578 53.0078 62.6484C53.2578 62.5391 53.5156 62.4844 53.7812 62.4844C54.3281 62.4844 54.7891 62.6875 55.1641 63.0938C55.5547 63.4844 55.75 63.9609 55.75 64.5234Z" fill="#EF0B0F"/>
</g>
<path d="M186.376 26.408H164.104V89H159.112V26.408H136.84V21.8H186.376V26.408ZM222.743 89H217.751V83.144C216.151 85.256 214.103 86.888 211.607 88.04C209.111 89.192 206.391 89.832 203.447 89.96C200.567 90.088 197.719 89.736 194.903 88.904C192.151 88.072 189.719 86.76 187.607 84.968C185.687 83.304 184.183 81.256 183.095 78.824C182.071 76.392 181.559 73.512 181.559 70.184V41H186.647V70.184C186.647 75.368 188.087 79.208 190.967 81.704C193.911 84.2 197.719 85.448 202.391 85.448C204.695 85.448 207.031 84.904 209.399 83.816C211.767 82.728 213.751 81.064 215.351 78.824C216.951 76.52 217.751 73.64 217.751 70.184V41H222.743V89ZM238.156 105.32V100.616C240.14 100.616 242.028 100.04 243.82 98.888C245.676 97.8 247.18 96.424 248.332 94.76C249.548 93.16 250.156 91.592 250.156 90.056L231.34 41H236.812L253.324 83.528L268.972 41H274.636L256.492 89.096C254.828 93.576 252.492 97.352 249.484 100.424C246.476 103.56 242.7 105.192 238.156 105.32ZM293.975 89.48C291.159 89.48 288.503 88.968 286.007 87.944C283.511 86.92 281.463 85.384 279.863 83.336C278.327 81.224 277.559 78.568 277.559 75.368C277.559 70.248 278.967 66.344 281.783 63.656C284.599 60.904 288.567 59.208 293.687 58.568C298.871 57.864 304.951 58.088 311.927 59.24V55.496C311.927 52.744 311.127 50.568 309.527 48.968C307.927 47.368 305.879 46.312 303.383 45.8C300.887 45.224 298.263 45.16 295.511 45.608C292.823 45.992 290.327 46.824 288.023 48.104C285.719 49.384 283.991 51.08 282.839 53.192L279.287 49.544C281.015 47.176 283.127 45.288 285.623 43.88C288.119 42.472 290.743 41.512 293.495 41C296.311 40.488 299.063 40.392 301.751 40.712C304.503 41.032 306.967 41.704 309.143 42.728C311.959 44.008 313.911 45.768 314.999 48.008C316.087 50.248 316.695 52.84 316.823 55.784C317.015 58.728 317.111 61.96 317.111 65.48L317.015 89H312.023V84.488C309.463 86.088 306.583 87.336 303.383 88.232C300.247 89.064 297.111 89.48 293.975 89.48ZM312.023 79.112V63.656C306.583 62.76 301.591 62.504 297.047 62.888C292.567 63.272 288.983 64.456 286.295 66.44C283.671 68.424 282.359 71.4 282.359 75.368C282.359 77.8 283.063 79.72 284.471 81.128C285.879 82.536 287.735 83.496 290.039 84.008C292.343 84.456 294.839 84.552 297.527 84.296C300.215 83.976 302.839 83.368 305.399 82.472C307.959 81.576 310.167 80.456 312.023 79.112ZM347.922 108.584C345.234 108.584 342.706 108.168 340.338 107.336C337.97 106.504 335.666 105.352 333.426 103.88L336.594 100.04C338.578 101.256 340.754 102.184 343.122 102.824C345.554 103.464 347.922 103.72 350.226 103.592C352.594 103.464 354.674 102.888 356.466 101.864C358.322 100.904 359.698 99.432 360.594 97.448C361.362 95.72 361.842 93.992 362.034 92.264C362.29 90.6 362.418 88.36 362.418 85.544C358.322 87.912 354.162 89.128 349.938 89.192C345.714 89.32 341.778 88.456 338.13 86.6C334.546 84.68 331.634 81.992 329.394 78.536C327.154 75.016 325.938 70.92 325.746 66.248C325.554 60.552 326.45 55.816 328.434 52.04C330.418 48.2 333.17 45.32 336.69 43.4C340.21 41.48 344.178 40.552 348.594 40.616C353.074 40.616 357.682 41.64 362.418 43.688V41H367.506V89C367.506 95.08 365.938 99.848 362.802 103.304C359.666 106.824 354.706 108.584 347.922 108.584ZM330.834 66.248C330.962 70.088 331.954 73.352 333.81 76.04C335.73 78.728 338.226 80.744 341.298 82.088C344.434 83.368 347.826 83.88 351.474 83.624C355.186 83.304 358.834 82.152 362.418 80.168V48.968C356.146 46.536 350.578 45.512 345.714 45.896C340.914 46.28 337.202 48.136 334.578 51.464C331.954 54.792 330.706 59.72 330.834 66.248ZM421.112 65.96H381.272C381.272 70.952 382.36 74.984 384.536 78.056C386.776 81.064 389.688 83.144 393.272 84.296C396.92 85.384 400.824 85.512 404.984 84.68C409.208 83.848 413.304 82.024 417.272 79.208L419.768 83.24C416.888 85.416 413.816 87.048 410.552 88.136C407.352 89.16 404.056 89.736 400.664 89.864C392.792 90.184 386.68 88.008 382.328 83.336C377.976 78.6 375.8 72.072 375.8 63.752C375.8 56.584 377.752 50.92 381.656 46.76C385.56 42.6 391.48 40.52 399.416 40.52C404.344 40.52 408.568 41.544 412.088 43.592C415.672 45.64 418.264 48.68 419.864 52.712C420.568 54.504 421.016 56.52 421.208 58.76C421.4 61 421.368 63.4 421.112 65.96ZM399.416 45.32C396.28 45.32 393.336 45.832 390.584 46.856C387.832 47.88 385.592 49.544 383.864 51.848C382.136 54.088 381.272 57.16 381.272 61.064H416.312C416.312 55.688 414.776 51.72 411.704 49.16C408.632 46.6 404.536 45.32 399.416 45.32Z" fill="#EF0B0F"/>
<defs>
<clipPath id="clip0_1137_176">
<rect width="109" height="109" fill="white"/>
</clipPath>
</defs>
</svg>
